# xmcd CD database file
#
# Track frame offsets:
#	150
#	36220
#	54400
#	62522
#	101492
#	141155
#	180215
#	224030
#	262940
#
# Disc length: 3947 seconds
#
# Revision: 0
# Processed by: cddbd v1.5.1PL0 Copyright (c) Steve Scherf et al.
# Submitted via: CDex 1.51
#
DISCID=7a0f6909
DTITLE=Chopin - ショパン・ピアノ作品全曲集 Disk 13 変奏曲・ロンド - Nikita Magaloff , Michel Dalberto
DYEAR=1900
DGENRE=クラシック (一般)
TTITLE0=華麗なる変奏曲 変ロ長調 作品12 (エロールの歌劇《リュドヴィク》のロンド主題による)
TTITLE1=変奏曲 イ長調 《パガニーニの思い出》 遺作
TTITLE2=《ヘクサメロン》 変奏曲 ホ長調 遺作 (ベルリーニの歌劇《清教徒》の行進曲による)
TTITLE3=ドイツ民謡《スイスの少年》による変奏曲 ホ長調 遺作
TTITLE4=ロンド ハ短調 作品1
TTITLE5=マズルカ風ロンド ヘ長調 作品5
TTITLE6=ロンド 変ホ長調 作品16
TTITLE7=ロンド ハ長調 作品73 (2台のピアノのための)
TTITLE8=《ヴェネツィアの謝肉祭》による4手のための変奏曲 ニ長調
EXTD=
EXTT0=
EXTT1=
EXTT2=
EXTT3=
EXTT4=
EXTT5=
EXTT6=
EXTT7=
EXTT8=
PLAYORDER=
